<svg width="91" height="76" viewBox="0 0 91 76" fill="none" xmlns="http://www.w3.org/2000/svg">
<path fill-rule="evenodd" clip-rule="evenodd" d="M80.061 35.536C78.991 35.536 77.975 35.316 77.008 34.999L69.091 60.181H45.275H44.577H20.763L12.84 34.98C11.946 35.244 11.019 35.429 10.042 35.429C4.493 35.429 0 30.896 0 25.309C0 19.722 4.493 15.194 10.042 15.194C15.585 15.194 20.083 19.721 20.083 25.309C20.083 29.006 18.091 32.205 15.155 33.974C18.969 37.871 24.928 42.12 31.424 39.703C36.773 37.715 41.837 26.594 43.557 20.44C38.653 19.751 34.868 15.492 34.868 10.291C34.868 4.611 39.367 0 44.92 0C50.474 0 54.977 4.611 54.977 10.291C54.977 15.493 51.197 19.742 46.297 20.435C48.022 26.594 53.081 37.715 58.43 39.704C64.951 42.126 70.928 37.843 74.738 33.931C71.973 32.129 70.128 28.978 70.128 25.369C70.128 19.752 74.572 15.201 80.063 15.201C85.552 15.201 90.002 19.753 90.002 25.369C90.002 30.985 85.55 35.536 80.061 35.536ZM22.525 65.427H67.537C71.679 65.427 75.039 67.849 75.039 71.996C75.039 76.138 71.679 75.43 67.537 75.43C67.537 75.43 56.284 75.43 45.031 75.43C33.778 75.43 22.525 75.43 22.525 75.43C18.383 75.43 15.023 76.138 15.023 71.996C15.023 67.849 18.384 65.427 22.525 65.427Z" fill="#50B0FD"/>
</svg>
