<svg width="384" height="115" viewBox="0 0 384 115" fill="none" xmlns="http://www.w3.org/2000/svg">
<path fill-rule="evenodd" clip-rule="evenodd" d="M373.146 35.536C372.076 35.536 371.06 35.316 370.093 34.999L362.176 60.181H338.36H337.662H313.848L305.925 34.98C305.031 35.244 304.104 35.429 303.127 35.429C297.578 35.429 293.085 30.896 293.085 25.309C293.085 19.722 297.578 15.194 303.127 15.194C308.67 15.194 313.168 19.721 313.168 25.309C313.168 29.006 311.176 32.205 308.24 33.974C312.054 37.871 318.013 42.12 324.509 39.703C329.858 37.715 334.922 26.594 336.642 20.44C331.738 19.751 327.953 15.492 327.953 10.291C327.953 4.611 332.452 0 338.005 0C343.559 0 348.062 4.611 348.062 10.291C348.062 15.493 344.282 19.742 339.382 20.435C341.107 26.594 346.166 37.715 351.515 39.704C358.036 42.126 364.013 37.843 367.823 33.931C365.058 32.129 363.213 28.978 363.213 25.369C363.213 19.752 367.657 15.201 373.148 15.201C378.637 15.201 383.087 19.753 383.087 25.369C383.087 30.985 378.635 35.536 373.146 35.536ZM315.61 65.427H360.622C364.764 65.427 368.124 67.849 368.124 71.996C368.124 76.138 364.764 75.43 360.622 75.43C360.622 75.43 349.369 75.43 338.116 75.43C326.863 75.43 315.61 75.43 315.61 75.43C311.468 75.43 308.108 76.138 308.108 71.996C308.108 67.849 311.469 65.427 315.61 65.427Z" fill="#50B0FD"/>
<path d="M60.69 15.5L34.595 75H26.18L0 15.5H9.18L30.6 64.375L52.19 15.5H60.69Z" fill="black"/>
<path d="M68.2776 15.5H76.7776V75H68.2776V15.5Z" fill="black"/>
<path d="M117.796 15.5C125.503 15.5 131.566 17.3417 135.986 21.025C140.406 24.7083 142.616 29.78 142.616 36.24C142.616 42.7 140.406 47.7717 135.986 51.455C131.566 55.1383 125.503 56.98 117.796 56.98H103.091V75H94.5911V15.5H117.796ZM117.541 49.585C122.924 49.585 127.033 48.4517 129.866 46.185C132.699 43.8617 134.116 40.5467 134.116 36.24C134.116 31.9333 132.699 28.6467 129.866 26.38C127.033 24.0567 122.924 22.895 117.541 22.895H103.091V49.585H117.541Z" fill="black"/>
<path d="M196.248 11.93V75H188.428V67.86C186.614 70.3533 184.319 72.2517 181.543 73.555C178.766 74.8583 175.706 75.51 172.363 75.51C167.999 75.51 164.089 74.5467 160.633 72.62C157.176 70.6933 154.456 68.0017 152.473 64.545C150.546 61.0317 149.583 57.0083 149.583 52.475C149.583 47.9417 150.546 43.9467 152.473 40.49C154.456 37.0333 157.176 34.3417 160.633 32.415C164.089 30.4883 167.999 29.525 172.363 29.525C175.593 29.525 178.568 30.1483 181.288 31.395C184.008 32.585 186.274 34.37 188.088 36.75V11.93H196.248ZM173.043 68.37C175.876 68.37 178.454 67.7183 180.778 66.415C183.101 65.055 184.914 63.185 186.218 60.805C187.521 58.3683 188.173 55.5917 188.173 52.475C188.173 49.3583 187.521 46.61 186.218 44.23C184.914 41.7933 183.101 39.9233 180.778 38.62C178.454 37.3167 175.876 36.665 173.043 36.665C170.153 36.665 167.546 37.3167 165.223 38.62C162.956 39.9233 161.143 41.7933 159.783 44.23C158.479 46.61 157.828 49.3583 157.828 52.475C157.828 55.5917 158.479 58.3683 159.783 60.805C161.143 63.185 162.956 65.055 165.223 66.415C167.546 67.7183 170.153 68.37 173.043 68.37Z" fill="black"/>
<path d="M219.507 37.515C220.924 34.9083 223.021 32.925 225.797 31.565C228.574 30.205 231.946 29.525 235.912 29.525V37.43C235.459 37.3733 234.836 37.345 234.042 37.345C229.622 37.345 226.137 38.6767 223.587 41.34C221.094 43.9467 219.847 47.6867 219.847 52.56V75H211.687V29.95H219.507V37.515Z" fill="black"/>
<path d="M287.661 29.95L267.941 75H259.611L239.891 29.95H248.391L263.861 66.075L279.671 29.95H287.661Z" fill="black"/>
<path d="M189.475 93L180.265 114H177.295L168.055 93H171.295L178.855 110.25L186.475 93H189.475Z" fill="#50B0FD"/>
<path d="M192.153 93H195.153V114H192.153V93Z" fill="#50B0FD"/>
<path d="M209.63 93C212.35 93 214.49 93.65 216.05 94.95C217.61 96.25 218.39 98.04 218.39 100.32C218.39 102.6 217.61 104.39 216.05 105.69C214.49 106.99 212.35 107.64 209.63 107.64H204.44V114H201.44V93H209.63ZM209.54 105.03C211.44 105.03 212.89 104.63 213.89 103.83C214.89 103.01 215.39 101.84 215.39 100.32C215.39 98.8 214.89 97.64 213.89 96.84C212.89 96.02 211.44 95.61 209.54 95.61H204.44V105.03H209.54Z" fill="#50B0FD"/>
<path d="M235.317 95.61H228.117V93H245.487V95.61H238.287V114H235.317V95.61Z" fill="#50B0FD"/>
<path d="M261.064 106.14C261.064 106.36 261.044 106.65 261.004 107.01H248.104C248.284 108.41 248.894 109.54 249.934 110.4C250.994 111.24 252.304 111.66 253.864 111.66C255.764 111.66 257.294 111.02 258.454 109.74L260.044 111.6C259.324 112.44 258.424 113.08 257.344 113.52C256.284 113.96 255.094 114.18 253.774 114.18C252.094 114.18 250.604 113.84 249.304 113.16C248.004 112.46 246.994 111.49 246.274 110.25C245.574 109.01 245.224 107.61 245.224 106.05C245.224 104.51 245.564 103.12 246.244 101.88C246.944 100.64 247.894 99.68 249.094 99C250.314 98.3 251.684 97.95 253.204 97.95C254.724 97.95 256.074 98.3 257.254 99C258.454 99.68 259.384 100.64 260.044 101.88C260.724 103.12 261.064 104.54 261.064 106.14ZM253.204 100.38C251.824 100.38 250.664 100.8 249.724 101.64C248.804 102.48 248.264 103.58 248.104 104.94H258.304C258.144 103.6 257.594 102.51 256.654 101.67C255.734 100.81 254.584 100.38 253.204 100.38Z" fill="#50B0FD"/>
<path d="M269.623 114.18C268.323 114.18 267.073 114.01 265.873 113.67C264.673 113.31 263.733 112.86 263.053 112.32L264.253 110.04C264.953 110.54 265.803 110.94 266.803 111.24C267.803 111.54 268.813 111.69 269.833 111.69C272.353 111.69 273.613 110.97 273.613 109.53C273.613 109.05 273.443 108.67 273.103 108.39C272.763 108.11 272.333 107.91 271.813 107.79C271.313 107.65 270.593 107.5 269.653 107.34C268.373 107.14 267.323 106.91 266.503 106.65C265.703 106.39 265.013 105.95 264.433 105.33C263.853 104.71 263.563 103.84 263.563 102.72C263.563 101.28 264.163 100.13 265.363 99.27C266.563 98.39 268.173 97.95 270.193 97.95C271.253 97.95 272.313 98.08 273.373 98.34C274.433 98.6 275.303 98.95 275.983 99.39L274.753 101.67C273.453 100.83 271.923 100.41 270.163 100.41C268.943 100.41 268.013 100.61 267.373 101.01C266.733 101.41 266.413 101.94 266.413 102.6C266.413 103.12 266.593 103.53 266.953 103.83C267.313 104.13 267.753 104.35 268.273 104.49C268.813 104.63 269.563 104.79 270.523 104.97C271.803 105.19 272.833 105.43 273.613 105.69C274.413 105.93 275.093 106.35 275.653 106.95C276.213 107.55 276.493 108.39 276.493 109.47C276.493 110.91 275.873 112.06 274.633 112.92C273.413 113.76 271.743 114.18 269.623 114.18Z" fill="#50B0FD"/>
<path d="M289.032 113.07C288.612 113.43 288.092 113.71 287.472 113.91C286.852 114.09 286.212 114.18 285.552 114.18C283.952 114.18 282.712 113.75 281.832 112.89C280.952 112.03 280.512 110.8 280.512 109.2V100.47H277.812V98.1H280.512V94.62H283.392V98.1H287.952V100.47H283.392V109.08C283.392 109.94 283.602 110.6 284.022 111.06C284.462 111.52 285.082 111.75 285.882 111.75C286.762 111.75 287.512 111.5 288.132 111L289.032 113.07Z" fill="#50B0FD"/>
<path d="M300.991 93H309.841C312.061 93 314.031 93.44 315.751 94.32C317.471 95.2 318.801 96.44 319.741 98.04C320.701 99.62 321.181 101.44 321.181 103.5C321.181 105.56 320.701 107.39 319.741 108.99C318.801 110.57 317.471 111.8 315.751 112.68C314.031 113.56 312.061 114 309.841 114H300.991V93ZM309.661 111.39C311.361 111.39 312.851 111.06 314.131 110.4C315.431 109.74 316.431 108.82 317.131 107.64C317.831 106.44 318.181 105.06 318.181 103.5C318.181 101.94 317.831 100.57 317.131 99.39C316.431 98.19 315.431 97.26 314.131 96.6C312.851 95.94 311.361 95.61 309.661 95.61H303.991V111.39H309.661Z" fill="#50B0FD"/>
<path d="M328.116 100.77C328.616 99.85 329.356 99.15 330.336 98.67C331.316 98.19 332.506 97.95 333.906 97.95V100.74C333.746 100.72 333.526 100.71 333.246 100.71C331.686 100.71 330.456 101.18 329.556 102.12C328.676 103.04 328.236 104.36 328.236 106.08V114H325.356V98.1H328.116V100.77Z" fill="#50B0FD"/>
<path d="M337.456 98.1H340.336V114H337.456V98.1ZM338.896 95.04C338.336 95.04 337.866 94.86 337.486 94.5C337.126 94.14 336.946 93.7 336.946 93.18C336.946 92.66 337.126 92.22 337.486 91.86C337.866 91.48 338.336 91.29 338.896 91.29C339.456 91.29 339.916 91.47 340.276 91.83C340.656 92.17 340.846 92.6 340.846 93.12C340.846 93.66 340.656 94.12 340.276 94.5C339.916 94.86 339.456 95.04 338.896 95.04Z" fill="#50B0FD"/>
<path d="M359.905 98.1L352.945 114H350.005L343.045 98.1H346.045L351.505 110.85L357.085 98.1H359.905Z" fill="#50B0FD"/>
<path d="M376.523 106.14C376.523 106.36 376.503 106.65 376.463 107.01H363.563C363.743 108.41 364.353 109.54 365.393 110.4C366.453 111.24 367.763 111.66 369.323 111.66C371.223 111.66 372.753 111.02 373.913 109.74L375.503 111.6C374.783 112.44 373.883 113.08 372.803 113.52C371.743 113.96 370.553 114.18 369.233 114.18C367.553 114.18 366.063 113.84 364.763 113.16C363.463 112.46 362.453 111.49 361.733 110.25C361.033 109.01 360.683 107.61 360.683 106.05C360.683 104.51 361.023 103.12 361.703 101.88C362.403 100.64 363.353 99.68 364.553 99C365.773 98.3 367.143 97.95 368.663 97.95C370.183 97.95 371.533 98.3 372.713 99C373.913 99.68 374.843 100.64 375.503 101.88C376.183 103.12 376.523 104.54 376.523 106.14ZM368.663 100.38C367.283 100.38 366.123 100.8 365.183 101.64C364.263 102.48 363.723 103.58 363.563 104.94H373.763C373.603 103.6 373.053 102.51 372.113 101.67C371.193 100.81 370.043 100.38 368.663 100.38Z" fill="#50B0FD"/>
</svg>
